<svg width="246" height="112" viewBox="0 0 246 112" fill="none" xmlns="http://www.w3.org/2000/svg">
<g clip-path="url(#clip0_401_2042)">
<path fill-rule="evenodd" clip-rule="evenodd" d="M90.2651 56.0742L122.506 0L154.678 56.0742L122.472 77.0551L90.2651 56.0742ZM61.0582 37.0635L47.6235 60.3756L61.0582 79.9452H87.9276L81.7869 70.9999L74.4929 60.3756L87.9276 37.0635H61.0582ZM156.99 37.0722H183.855H210.721L197.288 60.3804L183.855 79.9461L170.423 60.3804L156.99 37.0722ZM122.473 86.0241L90.5353 65.0733L122.506 112.079L154.694 65.0733L122.473 86.0241ZM211.094 86.8187V86.4844L210.901 86.8187H211.094ZM13.4347 37.0635H0V79.9452H13.4347H26.8698L40.3045 60.3752L26.8698 37.0635H13.4347ZM219.134 37.0722H232.567H245.999V79.9461H232.567H219.134H219.134V37.0722Z" fill="black"/>
</g>
<defs>
<clipPath id="clip0_401_2042">
<rect width="246" height="112" fill="white"/>
</clipPath>
</defs>
</svg>
