<svg width="237" height="104" viewBox="0 0 237 104" fill="none" xmlns="http://www.w3.org/2000/svg">
<path d="M28.672 44C31.0187 41.6107 32.192 38.432 32.192 34.464C32.192 30.496 31.0187 27.3173 28.672 24.928C26.368 22.5387 23.5733 21.344 20.288 21.344C17.0453 21.344 14.2507 22.496 11.904 24.8C9.6 27.104 8.448 30.24 8.448 34.208C8.448 38.176 9.62133 41.3973 11.968 43.872C14.3147 46.3467 17.1093 47.584 20.352 47.584C23.5947 47.584 26.368 46.3893 28.672 44ZM19.264 52.576C14.4853 52.576 10.496 50.8693 7.296 47.456C4.096 44 2.496 39.6053 2.496 34.272C2.496 28.896 4.07467 24.5653 7.232 21.28C10.432 17.952 14.4427 16.288 19.264 16.288C22.2507 16.288 24.8533 16.992 27.072 18.4C29.3333 19.808 31.04 21.6427 32.192 23.904V4.64H38.08V52H32.192V44.832C31.04 47.136 29.3333 49.0133 27.072 50.464C24.8533 51.872 22.2507 52.576 19.264 52.576ZM62.395 52.576C57.3603 52.576 53.2643 50.912 50.107 47.584C46.9497 44.256 45.371 39.8613 45.371 34.4C45.371 28.9387 46.971 24.5653 50.171 21.28C53.371 17.952 57.5097 16.288 62.587 16.288C67.707 16.288 71.803 17.8667 74.875 21.024C77.9897 24.1387 79.547 28.128 79.547 32.992C79.547 34.2293 79.4617 35.3813 79.291 36.448H51.323C51.4937 39.9467 52.5817 42.72 54.587 44.768C56.635 46.7733 59.2377 47.776 62.395 47.776C64.7843 47.776 66.7897 47.2427 68.411 46.176C70.075 45.1093 71.291 43.7013 72.059 41.952H78.331C77.2217 45.024 75.3017 47.5627 72.571 49.568C69.883 51.5733 66.491 52.576 62.395 52.576ZM73.467 32.224C73.4243 28.8533 72.3577 26.1653 70.267 24.16C68.1763 22.112 65.5737 21.088 62.459 21.088C59.387 21.088 56.827 22.0907 54.779 24.096C52.731 26.0587 51.6003 28.768 51.387 32.224H73.467ZM82.768 16.864H88.976L99.728 46.56L110.544 16.864H116.816L103.056 52H96.464L82.768 16.864ZM137.083 52.576C132.048 52.576 127.952 50.912 124.795 47.584C121.637 44.256 120.059 39.8827 120.059 34.464C120.059 29.0027 121.637 24.608 124.795 21.28C127.952 17.952 132.048 16.288 137.083 16.288C141.307 16.288 144.741 17.2693 147.387 19.232C150.075 21.1947 151.952 23.9893 153.019 27.616H146.747C146.064 25.568 144.891 23.968 143.227 22.816C141.563 21.664 139.515 21.088 137.083 21.088C133.755 21.088 131.067 22.2613 129.019 24.608C127.013 26.912 126.01 30.1973 126.01 34.464C126.01 38.688 127.013 41.9733 129.019 44.32C131.067 46.624 133.755 47.776 137.083 47.776C142.075 47.776 145.296 45.6 146.747 41.248H153.019C151.952 44.704 150.053 47.456 147.323 49.504C144.635 51.552 141.221 52.576 137.083 52.576ZM175.714 47.776C178.999 47.776 181.836 46.6027 184.226 44.256C186.658 41.8667 187.874 38.5813 187.874 34.4C187.874 30.2187 186.722 26.9547 184.418 24.608C182.114 22.2613 179.298 21.088 175.97 21.088C172.684 21.088 169.932 22.2613 167.714 24.608C165.495 26.9547 164.385 30.24 164.385 34.464C164.385 38.6453 165.452 41.9093 167.586 44.256C169.719 46.6027 172.428 47.776 175.714 47.776ZM163.234 47.584C160.034 44.256 158.434 39.8827 158.434 34.464C158.434 29.0453 160.119 24.672 163.49 21.344C166.86 17.9733 171.084 16.288 176.162 16.288C181.239 16.288 185.463 17.9733 188.833 21.344C192.204 24.672 193.89 29.0453 193.89 34.464C193.89 39.84 192.119 44.2133 188.578 47.584C185.079 50.912 180.791 52.576 175.714 52.576C170.636 52.576 166.476 50.912 163.234 47.584ZM206.999 16.864V22.56C209.388 18.3787 213.207 16.288 218.455 16.288C222.338 16.288 225.58 17.5893 228.183 20.192C230.786 22.752 232.087 26.4213 232.087 31.2V52H226.327V32.16C226.327 28.6187 225.474 25.9307 223.767 24.096C222.06 22.2613 219.692 21.344 216.663 21.344C213.676 21.344 211.308 22.2613 209.559 24.096C207.852 25.9307 206.999 28.6187 206.999 32.16V52H201.175V16.864H206.999Z" fill="black"/>
<path d="M81.18 82.336H83.88V85H80.568C77.136 85 75.42 83.308 75.42 79.924V67.9H72.864V65.236H75.42V60.34H78.732V65.236H83.844V67.9H78.732V79.924C78.732 80.812 78.912 81.436 79.272 81.796C79.632 82.156 80.268 82.336 81.18 82.336ZM90.7729 58.36V68.44C92.1169 66.088 94.2649 64.912 97.2169 64.912C99.4009 64.912 101.225 65.644 102.689 67.108C104.153 68.548 104.885 70.612 104.885 73.3V85H101.645V73.84C101.645 71.848 101.165 70.336 100.205 69.304C99.2449 68.272 97.9129 67.756 96.2089 67.756C94.5289 67.756 93.1969 68.272 92.2129 69.304C91.2529 70.336 90.7729 71.848 90.7729 73.84V85H87.4969V58.36H90.7729ZM113.378 65.236V68.584C114.554 66.136 116.558 64.912 119.39 64.912V68.332H118.526C116.846 68.332 115.562 68.776 114.674 69.664C113.81 70.528 113.378 72.04 113.378 74.2V85H110.102V65.236H113.378ZM131.636 85.324C128.804 85.324 126.5 84.388 124.724 82.516C122.948 80.644 122.06 78.172 122.06 75.1C122.06 72.028 122.96 69.568 124.76 67.72C126.56 65.848 128.888 64.912 131.744 64.912C134.624 64.912 136.928 65.8 138.656 67.576C140.408 69.328 141.284 71.572 141.284 74.308C141.284 75.004 141.236 75.652 141.14 76.252H125.408C125.504 78.22 126.116 79.78 127.244 80.932C128.396 82.06 129.86 82.624 131.636 82.624C132.98 82.624 134.108 82.324 135.02 81.724C135.956 81.124 136.64 80.332 137.072 79.348H140.6C139.976 81.076 138.896 82.504 137.36 83.632C135.848 84.76 133.94 85.324 131.636 85.324ZM137.864 73.876C137.84 71.98 137.24 70.468 136.064 69.34C134.888 68.188 133.424 67.612 131.672 67.612C129.944 67.612 128.504 68.176 127.352 69.304C126.2 70.408 125.564 71.932 125.444 73.876H137.864ZM153.644 85.324C150.812 85.324 148.508 84.388 146.732 82.516C144.956 80.644 144.068 78.172 144.068 75.1C144.068 72.028 144.968 69.568 146.768 67.72C148.568 65.848 150.896 64.912 153.752 64.912C156.632 64.912 158.936 65.8 160.664 67.576C162.416 69.328 163.292 71.572 163.292 74.308C163.292 75.004 163.244 75.652 163.148 76.252H147.416C147.512 78.22 148.124 79.78 149.252 80.932C150.404 82.06 151.868 82.624 153.644 82.624C154.988 82.624 156.116 82.324 157.028 81.724C157.964 81.124 158.648 80.332 159.08 79.348H162.608C161.984 81.076 160.904 82.504 159.368 83.632C157.856 84.76 155.948 85.324 153.644 85.324ZM159.872 73.876C159.848 71.98 159.248 70.468 158.072 69.34C156.896 68.188 155.432 67.612 153.68 67.612C151.952 67.612 150.512 68.176 149.36 69.304C148.208 70.408 147.572 71.932 147.452 73.876H159.872Z" fill="black"/>
</svg>
