<svg width="737" height="212" viewBox="0 0 737 212" fill="none" xmlns="http://www.w3.org/2000/svg">
<path d="M112.31 65.3667L86.813 109.576L112.31 146.633H163.236L137.739 109.576L163.236 65.3667H112.31Z" fill="#1C63AD"/>
<path d="M137.739 109.576L163.236 65.3667H112.31L137.739 109.576Z" fill="#1D6EAD"/>
<path d="M112.31 65.3667L86.813 109.576H137.739L112.31 65.3667Z" fill="#07AED1"/>
<path d="M112.31 146.633L137.739 109.576H86.813L112.31 146.633Z" fill="#1D6EAD"/>
<path d="M137.739 109.576L112.31 146.633H163.236L137.739 109.576Z" fill="#214290"/>
<path d="M0.666504 65.3667V146.633L26.0956 106.034L0.666504 65.3667Z" fill="#07AED1"/>
<path d="M26.0956 65.3667H0.666504L26.0956 106.034L51.5927 65.3667H26.0956Z" fill="#1D6EAD"/>
<path d="M26.0956 106.034L0.666504 146.633H26.0956H51.5927L26.0956 106.034Z" fill="#1D6EAD"/>
<path d="M51.5931 65.3667L26.0959 106.034L51.5931 146.633L77.0222 109.576L51.5931 65.3667Z" fill="#214290"/>
<path d="M166.769 108.176L179.212 116.131L191.654 124.018L229.05 147.883L254.003 131.973L291.399 108.176L229.05 0L166.769 108.176Z" fill="#1C63AD"/>
<path d="M269.573 134.829L229.118 160.598L210.828 148.903V148.971L188.73 134.829L188.798 134.897L167.041 120.958L229.05 212L291.399 120.958L269.573 134.897V134.829Z" fill="#1C63AD"/>
<path d="M166.769 108.176L229.05 147.883V0L166.769 108.176Z" fill="#07AED1"/>
<path d="M291.399 108.176L229.05 147.883V0L291.399 108.176Z" fill="#214290"/>
<path d="M179.212 116.131L229.05 147.883V29.5765L179.212 116.131Z" fill="#E32227"/>
<path d="M278.888 116.131L229.05 147.883V29.5765L278.888 116.131Z" fill="#7F141C"/>
<path d="M191.654 124.018L229.05 147.883V59.1533L191.654 124.018Z" fill="#FBCD0B"/>
<path d="M266.446 124.018L229.05 147.883V59.1533L266.446 124.018Z" fill="#F68D1E"/>
<path d="M204.165 131.973L229.05 147.883V88.7299L204.165 131.973Z" fill="#FBCD0B"/>
<path d="M254.003 131.973L229.05 147.883V88.7299L254.003 131.973Z" fill="#F68D1E"/>
<path d="M291.399 120.958L229.05 212V160.666L291.399 120.958Z" fill="#214290"/>
<path d="M167.041 120.958L229.05 212V160.666L167.041 120.958Z" fill="#07AED1"/>
<path d="M269.573 134.829L229.05 193.982V160.598L269.573 134.829Z" fill="#7F141C"/>
<path d="M188.731 134.829L229.05 193.982V160.598L188.731 134.829Z" fill="#E32227"/>
<path d="M247.476 148.903L229.118 175.76V160.598L247.476 148.903Z" fill="#F68D1E"/>
<path d="M210.828 148.903L229.118 175.76V160.598L210.828 148.903Z" fill="#FBCD0B"/>
<path opacity="0.75" d="M229.05 147.883L237.549 133.061H220.551L229.05 147.883Z" fill="white"/>
<path opacity="0.75" d="M229.05 88.7299L237.549 73.9076H220.551L229.05 88.7299Z" fill="white"/>
<path opacity="0.75" d="M237.549 103.484L246.116 88.7299H229.05L237.549 103.484Z" fill="white"/>
<path opacity="0.75" d="M254.616 103.484L263.115 88.7299H246.116L254.616 103.484Z" fill="white"/>
<path opacity="0.75" d="M246.116 118.307L254.615 103.484H237.549L246.116 118.307Z" fill="white"/>
<path opacity="0.75" d="M237.549 133.061L246.116 118.307H229.05L237.549 133.061Z" fill="white"/>
<path opacity="0.75" d="M220.551 133.061L229.05 118.307H212.052L220.551 133.061Z" fill="white"/>
<path opacity="0.75" d="M203.485 103.484L194.986 88.7299H212.052L203.485 103.484Z" fill="white"/>
<path opacity="0.75" d="M212.052 118.307L203.485 103.484H220.551L212.052 118.307Z" fill="white"/>
<path opacity="0.75" d="M220.551 103.484L212.052 88.7299H229.05L220.551 103.484Z" fill="white"/>
<path opacity="0.75" d="M237.549 73.9077L246.116 59.1533H229.05L237.549 73.9077Z" fill="white"/>
<path opacity="0.75" d="M220.551 73.9077L212.052 59.1533H229.05L220.551 73.9077Z" fill="white"/>
<path d="M430.626 66.016H405.129V147.131H430.626H456.055V66.016H430.626Z" fill="#1C63AD"/>
<path d="M294.166 66.016L319.663 110.143L345.092 147.131L370.521 110.143L396.018 66.016H345.092H294.166Z" fill="#1C63AD"/>
<path opacity="0.75" d="M396.698 160.117V159.505L396.358 160.117H396.698Z" fill="#214290"/>
<path d="M430.626 66.016H405.129V147.131H430.626H456.055V66.016H430.626Z" fill="#07AED1"/>
<path d="M396.358 160.117H396.698V159.505L396.358 160.117Z" fill="#0075A2"/>
<path d="M319.663 110.143L345.092 66.016H294.166L319.663 110.143Z" fill="#07AED1"/>
<path d="M370.521 110.143L396.018 66.016H345.092L370.521 110.143Z" fill="#214290"/>
<path d="M345.091 66.016L319.662 110.143H370.521L345.091 66.016Z" fill="#1D6EAD"/>
<path d="M345.091 147.131L370.521 110.143H319.662L345.091 147.131Z" fill="#214290"/>
<path d="M430.626 106.607L405.129 147.131H456.055L454.763 145.091L430.626 106.607Z" fill="#1D6EAD"/>
<path d="M456.055 66.016H405.129L430.626 106.607L454.763 68.0558L456.055 66.016Z" fill="#1D6EAD"/>
<path d="M454.763 68.0558L430.626 106.607L454.763 145.091L456.055 147.131V66.016L454.763 68.0558Z" fill="#214290"/>
<path d="M486.734 65.7041H500.264C510.599 65.7041 517.602 72.1838 517.602 81.6334C517.602 91.083 510.599 97.5628 500.264 97.5628H486.734V65.7041ZM499.992 93.6479C507.947 93.6479 513.047 88.7881 513.047 81.7009C513.047 74.6137 507.947 69.7539 499.992 69.7539H491.289V93.6479H499.992Z" fill="#2F354B"/>
<path d="M557.174 93.648V97.6303H533.852V65.7716H556.494V69.7539H538.408V79.4735H554.522V83.3209H538.408V93.648H557.174Z" fill="#2F354B"/>
<path d="M601.165 65.7041L587.091 97.5628H582.535L568.393 65.7041H573.356L584.915 91.893L596.542 65.7041H601.165Z" fill="#2F354B"/>
<path d="M611.5 81.701C611.5 72.2514 618.775 65.3667 628.498 65.3667C633.461 65.3667 637.744 67.0541 640.668 70.3615L637.677 73.2639C635.229 70.699 632.169 69.484 628.634 69.484C621.358 69.484 615.987 74.6813 615.987 81.7685C615.987 88.8557 621.358 94.053 628.634 94.053C632.169 94.053 635.229 92.8381 637.677 90.2057L640.668 93.1081C637.744 96.4154 633.393 98.1029 628.43 98.1029C618.775 97.9679 611.5 91.0831 611.5 81.701Z" fill="#2F354B"/>
<path d="M653.179 81.701C653.179 72.3864 660.454 65.3667 670.313 65.3667C680.104 65.3667 687.311 72.3189 687.311 81.701C687.311 91.0831 680.036 98.0354 670.313 98.0354C660.454 97.9679 653.179 91.0156 653.179 81.701ZM682.756 81.701C682.756 74.6138 677.452 69.4165 670.313 69.4165C663.106 69.4165 657.803 74.6138 657.803 81.701C657.803 88.7882 663.106 93.9855 670.313 93.9855C677.384 93.918 682.756 88.7207 682.756 81.701Z" fill="#2F354B"/>
<path d="M731.166 65.7041V97.5628H727.426L708.185 73.8038V97.5628H703.629V65.7041H707.369L726.61 89.4631V65.7041H731.166Z" fill="#2F354B"/>
<path d="M515.087 132.189C516.107 133.539 516.651 135.159 516.651 137.049C516.651 139.816 515.495 141.976 513.183 143.528C510.871 145.081 507.472 145.823 503.052 145.823H484.966V113.897H502.1C506.384 113.897 509.648 114.64 511.823 116.192C513.999 117.677 515.087 119.702 515.087 122.267C515.087 123.752 514.679 125.102 513.931 126.249C513.183 127.464 512.095 128.409 510.599 129.151C512.571 129.826 513.999 130.839 515.087 132.189ZM495.641 121.389V126.114H500.673C503.052 126.114 504.208 125.304 504.208 123.752C504.208 122.199 503.052 121.389 500.673 121.389H495.641ZM505.704 135.766C505.704 134.079 504.48 133.269 502.1 133.269H495.641V138.264H502.168C504.548 138.264 505.704 137.454 505.704 135.766Z" fill="#2F354B"/>
<path d="M536.232 144.406C533.513 142.988 531.337 140.963 529.773 138.466C528.209 135.901 527.461 133.066 527.461 129.894C527.461 126.722 528.209 123.819 529.773 121.322C531.337 118.757 533.513 116.8 536.232 115.382C539.02 113.965 542.08 113.222 545.547 113.222C549.015 113.222 552.142 113.965 554.862 115.382C557.65 116.8 559.758 118.824 561.321 121.322C562.885 123.887 563.633 126.722 563.633 129.894C563.633 133.066 562.885 135.969 561.321 138.466C559.758 141.031 557.582 142.988 554.862 144.406C552.142 145.823 549.015 146.566 545.547 146.566C542.08 146.498 538.952 145.823 536.232 144.406ZM549.219 136.846C550.307 136.171 551.191 135.294 551.802 134.079C552.414 132.864 552.754 131.446 552.754 129.894C552.754 128.274 552.414 126.857 551.802 125.709C551.191 124.494 550.307 123.617 549.219 122.942C548.131 122.267 546.907 121.929 545.547 121.929C544.187 121.929 542.963 122.267 541.876 122.942C540.788 123.617 539.904 124.494 539.292 125.709C538.68 126.924 538.34 128.342 538.34 129.894C538.34 131.514 538.68 132.931 539.292 134.079C539.904 135.294 540.788 136.171 541.876 136.846C542.963 137.521 544.187 137.859 545.547 137.859C546.907 137.859 548.131 137.521 549.219 136.846Z" fill="#2F354B"/>
<path d="M597.153 129.017H606.536V142.516C604.632 143.798 602.457 144.811 599.941 145.553C597.425 146.228 594.978 146.633 592.53 146.633C589.13 146.633 586.003 145.958 583.283 144.541C580.563 143.123 578.455 141.166 576.892 138.601C575.328 136.036 574.58 133.201 574.58 129.961C574.58 126.722 575.328 123.887 576.892 121.322C578.455 118.757 580.563 116.8 583.351 115.382C586.139 113.965 589.266 113.29 592.734 113.29C595.861 113.29 598.717 113.83 601.233 114.842C603.749 115.922 605.788 117.407 607.42 119.432L600.485 125.507C598.445 123.144 596.065 121.997 593.278 121.997C590.898 121.997 588.994 122.739 587.566 124.157C586.139 125.574 585.459 127.532 585.459 129.961C585.459 132.391 586.139 134.281 587.566 135.766C588.926 137.251 590.83 137.926 593.142 137.926C594.502 137.926 595.861 137.656 597.085 137.184V129.017H597.153Z" fill="#2F354B"/>
<path d="M626.934 144.406C624.215 142.988 622.039 140.963 620.475 138.466C618.911 135.901 618.163 133.066 618.163 129.894C618.163 126.722 618.911 123.819 620.475 121.322C622.039 118.757 624.215 116.8 626.934 115.382C629.722 113.965 632.782 113.222 636.249 113.222C639.717 113.222 642.845 113.965 645.564 115.382C648.352 116.8 650.46 118.824 652.024 121.322C653.587 123.887 654.335 126.722 654.335 129.894C654.335 133.066 653.587 135.969 652.024 138.466C650.46 141.031 648.284 142.988 645.564 144.406C642.845 145.823 639.717 146.566 636.249 146.566C632.85 146.498 629.722 145.823 626.934 144.406ZM639.921 136.846C641.009 136.171 641.893 135.294 642.505 134.079C643.117 132.864 643.457 131.446 643.457 129.894C643.457 128.274 643.117 126.857 642.505 125.709C641.893 124.494 641.009 123.617 639.921 122.942C638.833 122.267 637.609 121.929 636.249 121.929C634.889 121.929 633.666 122.267 632.578 122.942C631.49 123.617 630.606 124.494 629.994 125.709C629.382 126.924 629.042 128.342 629.042 129.894C629.042 131.514 629.382 132.931 629.994 134.079C630.606 135.294 631.49 136.171 632.578 136.846C633.666 137.521 634.889 137.859 636.249 137.859C637.609 137.859 638.833 137.521 639.921 136.846Z" fill="#2F354B"/>
<path d="M672.489 122.267H663.106V113.897H692.751V122.267H683.3V145.823H672.489V122.267Z" fill="#2F354B"/>
<path d="M722.667 140.221H710.429L708.253 145.756H697.238L711.312 113.83H721.987L736.062 145.756H724.843L722.667 140.221ZM719.675 132.526L716.548 124.494L713.42 132.526H719.675Z" fill="#2F354B"/>
</svg>
