<svg width="237" height="103" viewBox="0 0 237 103" fill="none" xmlns="http://www.w3.org/2000/svg">
<path d="M28.672 43C31.0187 40.6107 32.192 37.432 32.192 33.464C32.192 29.496 31.0187 26.3173 28.672 23.928C26.368 21.5387 23.5733 20.344 20.288 20.344C17.0453 20.344 14.2507 21.496 11.904 23.8C9.6 26.104 8.448 29.24 8.448 33.208C8.448 37.176 9.62133 40.3973 11.968 42.872C14.3147 45.3467 17.1093 46.584 20.352 46.584C23.5947 46.584 26.368 45.3893 28.672 43ZM19.264 51.576C14.4853 51.576 10.496 49.8693 7.296 46.456C4.096 43 2.496 38.6053 2.496 33.272C2.496 27.896 4.07467 23.5653 7.232 20.28C10.432 16.952 14.4427 15.288 19.264 15.288C22.2507 15.288 24.8533 15.992 27.072 17.4C29.3333 18.808 31.04 20.6427 32.192 22.904V3.64H38.08V51H32.192V43.832C31.04 46.136 29.3333 48.0133 27.072 49.464C24.8533 50.872 22.2507 51.576 19.264 51.576ZM62.395 51.576C57.3603 51.576 53.2643 49.912 50.107 46.584C46.9497 43.256 45.371 38.8613 45.371 33.4C45.371 27.9387 46.971 23.5653 50.171 20.28C53.371 16.952 57.5097 15.288 62.587 15.288C67.707 15.288 71.803 16.8667 74.875 20.024C77.9897 23.1387 79.547 27.128 79.547 31.992C79.547 33.2293 79.4617 34.3813 79.291 35.448H51.323C51.4937 38.9467 52.5817 41.72 54.587 43.768C56.635 45.7733 59.2377 46.776 62.395 46.776C64.7843 46.776 66.7897 46.2427 68.411 45.176C70.075 44.1093 71.291 42.7013 72.059 40.952H78.331C77.2217 44.024 75.3017 46.5627 72.571 48.568C69.883 50.5733 66.491 51.576 62.395 51.576ZM73.467 31.224C73.4243 27.8533 72.3577 25.1653 70.267 23.16C68.1763 21.112 65.5737 20.088 62.459 20.088C59.387 20.088 56.827 21.0907 54.779 23.096C52.731 25.0587 51.6003 27.768 51.387 31.224H73.467ZM82.768 15.864H88.976L99.728 45.56L110.544 15.864H116.816L103.056 51H96.464L82.768 15.864ZM137.083 51.576C132.048 51.576 127.952 49.912 124.795 46.584C121.637 43.256 120.059 38.8827 120.059 33.464C120.059 28.0027 121.637 23.608 124.795 20.28C127.952 16.952 132.048 15.288 137.083 15.288C141.307 15.288 144.741 16.2693 147.387 18.232C150.075 20.1947 151.952 22.9893 153.019 26.616H146.747C146.064 24.568 144.891 22.968 143.227 21.816C141.563 20.664 139.515 20.088 137.083 20.088C133.755 20.088 131.067 21.2613 129.019 23.608C127.013 25.912 126.01 29.1973 126.01 33.464C126.01 37.688 127.013 40.9733 129.019 43.32C131.067 45.624 133.755 46.776 137.083 46.776C142.075 46.776 145.296 44.6 146.747 40.248H153.019C151.952 43.704 150.053 46.456 147.323 48.504C144.635 50.552 141.221 51.576 137.083 51.576ZM175.714 46.776C178.999 46.776 181.836 45.6027 184.226 43.256C186.658 40.8667 187.874 37.5813 187.874 33.4C187.874 29.2187 186.722 25.9547 184.418 23.608C182.114 21.2613 179.298 20.088 175.97 20.088C172.684 20.088 169.932 21.2613 167.714 23.608C165.495 25.9547 164.385 29.24 164.385 33.464C164.385 37.6453 165.452 40.9093 167.586 43.256C169.719 45.6027 172.428 46.776 175.714 46.776ZM163.234 46.584C160.034 43.256 158.434 38.8827 158.434 33.464C158.434 28.0453 160.119 23.672 163.49 20.344C166.86 16.9733 171.084 15.288 176.162 15.288C181.239 15.288 185.463 16.9733 188.833 20.344C192.204 23.672 193.89 28.0453 193.89 33.464C193.89 38.84 192.119 43.2133 188.578 46.584C185.079 49.912 180.791 51.576 175.714 51.576C170.636 51.576 166.476 49.912 163.234 46.584ZM206.999 15.864V21.56C209.388 17.3787 213.207 15.288 218.455 15.288C222.338 15.288 225.58 16.5893 228.183 19.192C230.786 21.752 232.087 25.4213 232.087 30.2V51H226.327V31.16C226.327 27.6187 225.474 24.9307 223.767 23.096C222.06 21.2613 219.692 20.344 216.663 20.344C213.676 20.344 211.308 21.2613 209.559 23.096C207.852 24.9307 206.999 27.6187 206.999 31.16V51H201.175V15.864H206.999Z" fill="black"/>
<path d="M94.18 81.336H96.88V84H93.568C90.136 84 88.42 82.308 88.42 78.924V66.9H85.864V64.236H88.42V59.34H91.732V64.236H96.844V66.9H91.732V78.924C91.732 79.812 91.912 80.436 92.272 80.796C92.632 81.156 93.268 81.336 94.18 81.336ZM123.141 64.236H126.453L120.225 84H116.841L112.377 68.304L107.913 84H104.493L98.2289 64.236H101.613L106.185 80.724L110.829 64.236H114.213L118.605 80.76L123.141 64.236ZM137.995 81.624C139.843 81.624 141.439 80.964 142.783 79.644C144.151 78.3 144.835 76.452 144.835 74.1C144.835 71.748 144.187 69.912 142.891 68.592C141.595 67.272 140.011 66.612 138.139 66.612C136.291 66.612 134.743 67.272 133.495 68.592C132.247 69.912 131.623 71.76 131.623 74.136C131.623 76.488 132.223 78.324 133.423 79.644C134.623 80.964 136.147 81.624 137.995 81.624ZM130.975 81.516C129.175 79.644 128.275 77.184 128.275 74.136C128.275 71.088 129.223 68.628 131.119 66.756C133.015 64.86 135.391 63.912 138.247 63.912C141.103 63.912 143.479 64.86 145.375 66.756C147.271 68.628 148.219 71.088 148.219 74.136C148.219 77.16 147.223 79.62 145.231 81.516C143.263 83.388 140.851 84.324 137.995 84.324C135.139 84.324 132.799 83.388 130.975 81.516Z" fill="black"/>
</svg>
